<?xml version="1.0" encoding="utf-8"?>
<!-- Generated by IcoMoon.io -->
<!DOCTYPE svg PUBLIC "-//W3C//DTD SVG 1.1//EN" "http://www.w3.org/Graphics/SVG/1.1/DTD/svg11.dtd">
<svg version="1.1" xmlns="http://www.w3.org/2000/svg" xmlns:xlink="http://www.w3.org/1999/xlink" width="100" height="100" viewBox="0 0 100 100">
<path d="M50 31.253c-13.809 0-25 11.191-25 25 0 13.806 11.191 25 25 25 13.806 0 25-11.194 25-25s-11.194-25-25-25zM64.234 68.456c-6.737 7.862-18.572 8.772-26.434 2.031-7.866-6.738-8.772-18.575-2.031-26.434 6.734-7.866 18.572-8.772 26.434-2.031 7.859 6.734 8.769 18.575 2.031 26.434zM50 43.753c0.862 0 1.563 0.7 1.563 1.563s-0.7 1.563-1.563 1.563c-5.178 0-9.372 4.197-9.375 9.372v0.006c0 0.859-0.7 1.563-1.563 1.563s-1.563-0.703-1.563-1.563v-0.006c0.003-6.9 5.597-12.497 12.5-12.497zM92.163 28.256l-13.544-2.259-4.291-10.731c-1.434-3.578-4.853-5.891-8.703-5.891h-31.25c-3.85 0-7.269 2.313-8.706 5.894l-4.288 10.728-13.541 2.259c-4.544 0.753-7.841 4.641-7.841 9.244v46.875c0 5.169 4.206 9.375 9.375 9.375h81.25c5.169 0 9.375-4.206 9.375-9.375v-46.875c0-4.603-3.297-8.491-7.837-9.244zM93.75 84.375c0 1.728-1.397 3.125-3.125 3.125h-81.25c-1.728 0-3.125-1.397-3.125-3.125v-46.875c0-1.528 1.106-2.831 2.612-3.081l17.012-2.834 5.597-13.994c0.478-1.184 1.625-1.966 2.903-1.966h31.25c1.275 0 2.422 0.778 2.9 1.966l5.597 13.994 17.016 2.834c1.506 0.25 2.612 1.553 2.612 3.081v46.875z" fill="#000000"></path>
</svg>
