<?xml version="1.0" encoding="utf-8"?>
<!-- Generated by IcoMoon.io -->
<!DOCTYPE svg PUBLIC "-//W3C//DTD SVG 1.1//EN" "http://www.w3.org/Graphics/SVG/1.1/DTD/svg11.dtd">
<svg version="1.1" xmlns="http://www.w3.org/2000/svg" xmlns:xlink="http://www.w3.org/1999/xlink" width="100" height="100" viewBox="0 0 100 100">
<path d="M97.219 88.55c-0.628-0.416-12.025-7.891-28.978-11.559 6.219-7.878 10.213-18.475 11.909-25.528 2.356-9.775 1.441-28.9-7.947-40.819-5.487-6.966-13.166-10.644-22.203-10.644s-16.716 3.681-22.2 10.644c-9.387 11.916-10.3 31.041-7.947 40.816 1.697 7.053 5.687 17.65 11.909 25.528-16.953 3.669-28.35 11.144-28.975 11.559-2.291 1.525-3.316 4.375-2.516 7.006 0.794 2.641 3.228 4.447 5.978 4.447h87.5c2.753 0 5.181-1.806 5.981-4.444 0.803-2.631-0.222-5.481-2.512-7.006zM63.334 73.119l-1.019 1.294c-7.453 8.562-17.172 8.562-24.622 0l-1.022-1.294c-8.703-11.028-13.022-25.616-11.162-39.531 1.703-13.372 9.366-27.337 24.491-27.337s22.791 13.969 24.494 27.341c1.853 13.922-2.45 28.494-11.159 39.528zM6.25 93.75c0.431-0.287 11.019-7.231 26.831-10.65l7.762-1.678c2.772 1.819 5.813 2.953 9.156 2.953 3.347 0 6.384-1.134 9.156-2.953l7.763 1.678c15.688 3.394 26.237 10.259 26.831 10.65h-87.5z" fill="#ffffff"></path>
</svg>
