<?xml version="1.0" encoding="utf-8"?>
<!-- Generated by IcoMoon.io -->
<!DOCTYPE svg PUBLIC "-//W3C//DTD SVG 1.1//EN" "http://www.w3.org/Graphics/SVG/1.1/DTD/svg11.dtd">
<svg version="1.1" xmlns="http://www.w3.org/2000/svg" xmlns:xlink="http://www.w3.org/1999/xlink" width="100" height="100" viewBox="0 0 100 100">
<path d="M68.763 0c-17.259 0-31.25 13.994-31.25 31.25 0 4.016 0.841 7.816 2.228 11.341l-37.966 37.963c-1.097 1.1-1.775 2.144-1.775 3.822v9.375c0 3.344 2.903 6.25 6.25 6.25h9.375c1.675 0 2.734-0.672 3.831-1.763l4.484-4.487h7.322c3.45 0 6.25-2.8 6.25-6.25v-6.25h6.25c3.45 0 6.25-2.8 6.25-6.25v-7.325l7.403-7.409c3.528 1.391 7.325 2.234 11.347 2.234 17.253 0 31.25-13.994 31.25-31.25s-13.997-31.25-31.25-31.25zM68.763 56.25c-4.625 0-8.913-1.344-12.628-3.538l-1.075 1.072-9.469 9.472c-1.172 1.172-1.831 2.759-1.831 4.419v7.325h-6.25c-3.45 0-6.25 2.797-6.25 6.25v6.25h-7.319c-1.656 0-3.247 0.659-4.419 1.831l-4.431 4.431-8.831-0.013-0.009-8.906 36.453-36.388c0 0 0 0.003 0.003 0.006l4.591-4.591c-2.194-3.716-3.538-8-3.538-12.625 0-13.806 11.197-25 25-25s25 11.194 25 25-11.191 25.003-24.997 25.003zM86.938 25.747c-3.503-4.881-7.769-9.141-12.672-12.669-0.797-0.578-1.828-0.722-2.756-0.397-4.341 1.528-7.313 4.497-8.831 8.838-0.116 0.325-0.172 0.662-0.172 0.997 0 0.622 0.194 1.238 0.569 1.759 3.516 4.887 7.775 9.15 12.666 12.666 0.8 0.575 1.825 0.722 2.753 0.4 4.347-1.519 7.319-4.494 8.844-8.837 0.116-0.325 0.172-0.663 0.172-0.997-0.003-0.622-0.2-1.238-0.572-1.759zM77.563 34.406c-4.619-3.322-8.641-7.344-11.938-11.853 1.209-3.447 3.472-5.709 6.819-6.941 4.622 3.328 8.638 7.341 11.925 11.909-1.222 3.422-3.478 5.672-6.806 6.884z" fill="#ffffff"></path>
</svg>
