<?xml version="1.0" encoding="utf-8"?>
<!-- Generated by IcoMoon.io -->
<!DOCTYPE svg PUBLIC "-//W3C//DTD SVG 1.1//EN" "http://www.w3.org/Graphics/SVG/1.1/DTD/svg11.dtd">
<svg version="1.1" xmlns="http://www.w3.org/2000/svg" xmlns:xlink="http://www.w3.org/1999/xlink" width="100" height="100" viewBox="0 0 100 100">
<path d="M78.125 40.625v-12.5c0-15.534-12.591-28.125-28.125-28.125s-28.125 12.591-28.125 28.125v12.5c-5.178 0-9.375 4.197-9.375 9.375v21.875c0 15.534 12.591 28.125 28.125 28.125h18.75c15.534 0 28.125-12.591 28.125-28.125v-21.875c0-5.181-4.2-9.375-9.375-9.375zM28.125 28.125c0-12.081 9.794-21.875 21.875-21.875s21.875 9.794 21.875 21.875v12.5h-6.25v-12.494c0-8.631-6.994-15.625-15.625-15.625s-15.625 6.994-15.625 15.625v12.494h-6.25v-12.5zM62.5 28.125v12.5h-25v-12.5c0-6.903 5.597-12.5 12.5-12.5s12.5 5.597 12.5 12.5zM81.25 59.375v12.5c0 12.059-9.816 21.875-21.875 21.875h-18.75c-12.059 0-21.875-9.816-21.875-21.875v-21.875c0-1.725 1.4-3.125 3.125-3.125 2.084 0 4.166 0 6.25 0h43.75c2.081 0 4.163 0 6.25 0 1.722 0 3.125 1.4 3.125 3.125v9.375zM50 59.375c3.45 0 6.25 2.797 6.25 6.25 0 1.903-1.025 5.525-2.081 8.381-0.853 2.306-1.725 4.112-4.169 4.112-2.247 0-3.316-1.825-4.166-4.144-1.044-2.85-2.084-6.453-2.084-8.35 0-3.453 2.8-6.25 6.25-6.25z" fill="#ffffff"></path>
</svg>
