<?xml version="1.0" encoding="utf-8"?>
<!-- Generated by IcoMoon.io -->
<!DOCTYPE svg PUBLIC "-//W3C//DTD SVG 1.1//EN" "http://www.w3.org/Graphics/SVG/1.1/DTD/svg11.dtd">
<svg version="1.1" xmlns="http://www.w3.org/2000/svg" xmlns:xlink="http://www.w3.org/1999/xlink" width="100" height="100" viewBox="0 0 100 100">
<path d="M91.859 8.063c-5.141-5.134-11.909-8.063-18.581-8.063-5.628 0-10.809 2.087-14.594 5.866l-15.209 15.325c-0.047 0.044-0.1 0.072-0.147 0.119-0.025 0.025-0.041 0.059-0.066 0.081l0.006 0.006-32.278 32.528c-1.488 1.478-2.566 3.319-3.166 5.328l-7.341 26.587c-0.006 0.072-0.484 2.159-0.484 3.222 0 6.037 4.903 10.938 10.95 10.938 1.203 0 3.531-0.575 3.616-0.587l26.494-6.966c2.013-0.597 3.841-1.684 5.328-3.175l47.697-48.072c8.675-8.681 7.697-23.231-2.225-33.137zM50.044 74.359c-0.256-2.819-1.053-5.584-2.247-8.209l29.547-29.544c1.806 5.706 0.878 11.675-3.081 15.638-0.025 0.025-0.056 0.041-0.078 0.066l0.044 0.041-24.15 24.344c0-0.778 0.038-1.541-0.034-2.334zM46.228 63.3c-1.166-1.916-2.491-3.766-4.131-5.403-1.909-1.909-4.1-3.406-6.387-4.663l29.788-29.788c2.338 1.038 4.578 2.516 6.556 4.494 1.691 1.684 2.997 3.572 4.003 5.534l-29.828 29.825zM32.769 51.756c-2.894-1.166-5.925-1.831-8.963-1.872l24.072-24.256c3.684-3.594 9.050-4.628 14.334-3.319l-29.444 29.447zM13.022 93.353c-0.341 0.078-1.4 0.347-2.119 0.397-2.569-0.031-4.653-2.119-4.653-4.688 0.037-0.525 0.247-1.428 0.319-1.756l3.291-11.919c3.572-0.097 7.416 1.294 10.437 4.322 3.069 3.063 4.512 6.981 4.356 10.597l-11.631 3.047zM27.731 89.491c-0.075-4.194-1.781-8.556-5.225-11.994-3.256-3.259-7.519-5.141-11.769-5.309l3.112-11.272c0.225-0.75 0.672-1.491 1.222-2.138 6.269-4.487 15.909-3.162 22.606 3.541 7.084 7.081 8.178 17.456 2.722 23.65-0.363 0.191-0.728 0.372-1.122 0.487l-11.547 3.034zM89.659 36.788l-5.263 5.303c0-0.706 0.084-1.384 0.019-2.106-0.55-6.047-3.369-11.894-7.947-16.466-5.091-5.094-11.841-8.016-18.525-8.034l5.175-5.219c2.591-2.584 6.206-4.016 10.159-4.016 5.028 0 10.194 2.275 14.166 6.234 3.728 3.722 5.95 8.347 6.269 13.025 0.294 4.366-1.147 8.369-4.053 11.278z" fill="#00611c"></path>
</svg>
