<?xml version="1.0" encoding="utf-8"?>
<!-- Generated by IcoMoon.io -->
<!DOCTYPE svg PUBLIC "-//W3C//DTD SVG 1.1//EN" "http://www.w3.org/Graphics/SVG/1.1/DTD/svg11.dtd">
<svg version="1.1" xmlns="http://www.w3.org/2000/svg" xmlns:xlink="http://www.w3.org/1999/xlink" width="100" height="100" viewBox="0 0 100 100">
<path d="M90.625 0h-68.75c-5.178 0-9.375 4.194-9.375 9.375v6.25h-3.125c-5.178 0-9.375 4.194-9.375 9.375v62.5c0 6.903 5.597 12.5 12.5 12.5h75c6.903 0 12.5-5.597 12.5-12.5v-78.125c0-5.181-4.2-9.375-9.375-9.375zM93.75 87.5c0 3.444-2.806 6.25-6.25 6.25h-75c-3.447 0-6.25-2.806-6.25-6.25v-62.5c0-1.725 1.4-3.125 3.125-3.125h3.125v62.5c0 1.728 1.397 3.125 3.125 3.125s3.125-1.397 3.125-3.125v-75c0-1.725 1.4-3.125 3.125-3.125h68.75c1.722 0 3.125 1.4 3.125 3.125v78.125zM60.931 40.641c-0.859 0-1.563-0.7-1.563-1.563s0.703-1.563 1.563-1.563h25c0.866 0 1.563 0.7 1.563 1.563s-0.697 1.563-1.563 1.563h-25zM60.931 31.266c-0.859 0-1.563-0.7-1.563-1.563s0.703-1.563 1.563-1.563h25c0.866 0 1.563 0.7 1.563 1.563s-0.697 1.563-1.563 1.563h-25zM60.931 21.891c-0.859 0-1.563-0.7-1.563-1.563s0.703-1.563 1.563-1.563h25c0.866 0 1.563 0.7 1.563 1.563s-0.697 1.563-1.563 1.563h-25zM51.563 84.388c0.862 0 1.563 0.703 1.563 1.563 0 0.866-0.703 1.563-1.563 1.563h-25c-0.863 0-1.563-0.697-1.563-1.563 0-0.859 0.7-1.563 1.563-1.563h25zM51.563 75.013c0.862 0 1.563 0.703 1.563 1.563 0 0.866-0.703 1.563-1.563 1.563h-25c-0.863 0-1.563-0.697-1.563-1.563 0-0.859 0.7-1.563 1.563-1.563h25zM51.563 65.638c0.862 0 1.563 0.703 1.563 1.563 0 0.866-0.703 1.563-1.563 1.563h-25c-0.863 0-1.563-0.697-1.563-1.563 0-0.859 0.7-1.563 1.563-1.563h25zM85.938 84.388c0.859 0 1.563 0.703 1.563 1.563 0 0.866-0.703 1.563-1.563 1.563h-25c-0.866 0-1.563-0.697-1.563-1.563 0-0.859 0.697-1.563 1.563-1.563h25zM85.938 75.013c0.859 0 1.563 0.703 1.563 1.563 0 0.866-0.703 1.563-1.563 1.563h-25c-0.866 0-1.563-0.697-1.563-1.563 0-0.859 0.697-1.563 1.563-1.563h25zM85.938 65.638c0.859 0 1.563 0.703 1.563 1.563 0 0.866-0.703 1.563-1.563 1.563h-25c-0.866 0-1.563-0.697-1.563-1.563 0-0.859 0.697-1.563 1.563-1.563h25zM85.938 46.887c0.859 0 1.563 0.7 1.563 1.563s-0.703 1.563-1.563 1.563h-59.375c-0.863 0-1.563-0.7-1.563-1.563s0.7-1.563 1.563-1.563h59.375zM85.938 56.263c0.859 0 1.563 0.703 1.563 1.563 0 0.866-0.703 1.563-1.563 1.563h-59.375c-0.863 0-1.563-0.697-1.563-1.563 0-0.859 0.7-1.563 1.563-1.563h59.375zM28.125 40.625h21.875c1.728 0 3.125-1.397 3.125-3.125v-21.863c0-1.728-1.397-3.125-3.125-3.125h-21.875c-1.728 0-3.125 1.397-3.125 3.125v21.863c0 1.725 1.397 3.125 3.125 3.125zM31.25 18.75h15.625v15.625h-15.625v-15.625z" fill="#000000"></path>
</svg>
