<?xml version="1.0" encoding="utf-8"?>
<!-- Generated by IcoMoon.io -->
<!DOCTYPE svg PUBLIC "-//W3C//DTD SVG 1.1//EN" "http://www.w3.org/Graphics/SVG/1.1/DTD/svg11.dtd">
<svg version="1.1" xmlns="http://www.w3.org/2000/svg" xmlns:xlink="http://www.w3.org/1999/xlink" width="100" height="100" viewBox="0 0 100 100">
<path d="M99.628 39.241c-0.866-2.497-3.087-4.325-5.763-4.722l-26.019-3.869-11.309-23.481c-1.191-2.466-3.738-4.044-6.538-4.044s-5.347 1.578-6.538 4.044l-11.309 23.481-26.022 3.869c-2.672 0.397-4.894 2.225-5.756 4.722-0.859 2.503-0.209 5.259 1.678 7.141l19.069 19.038-4.422 26.409c-0.45 2.659 0.703 5.328 2.962 6.884 1.241 0.853 2.7 1.287 4.159 1.287 1.2 0 2.403-0.294 3.494-0.878l22.684-12.213 22.688 12.213c1.091 0.584 2.294 0.878 3.491 0.878 1.459 0 2.919-0.434 4.163-1.287 2.259-1.556 3.406-4.225 2.959-6.884l-4.425-26.409 19.075-19.037c1.884-1.884 2.531-4.641 1.678-7.141zM73.713 60.509c-1.6 1.594-2.325 3.841-1.959 6.044l4.425 26.409-22.687-12.206c-1.087-0.587-2.288-0.878-3.494-0.878-1.2 0-2.403 0.294-3.491 0.878l-22.688 12.206 4.425-26.409c0.369-2.203-0.356-4.45-1.956-6.044l-19.069-19.037 26.019-3.875c2.378-0.353 4.425-1.841 5.447-3.963l11.316-23.475 11.313 23.478c1.025 2.122 3.069 3.606 5.444 3.963l26.025 3.875-19.069 19.034z" fill="#444444"></path>
</svg>
