<?xml version="1.0" encoding="utf-8"?>
<!-- Generated by IcoMoon.io -->
<!DOCTYPE svg PUBLIC "-//W3C//DTD SVG 1.1//EN" "http://www.w3.org/Graphics/SVG/1.1/DTD/svg11.dtd">
<svg version="1.1" xmlns="http://www.w3.org/2000/svg" xmlns:xlink="http://www.w3.org/1999/xlink" width="100" height="100" viewBox="0 0 100 100">
<path d="M93.688 21.309c-0.3-4.906-4.334-8.8-9.313-8.8h-9.375v-3.131c0-5.178-4.2-9.375-9.375-9.375h-31.25c-5.178 0-9.375 4.197-9.375 9.375v3.128h-9.375c-4.984 0-9.016 3.894-9.316 8.8h-0.059v6.822c0 3.45 2.8 6.25 6.25 6.25v0 53.125c0 6.903 5.597 12.5 12.5 12.5h50c6.903 0 12.5-5.597 12.5-12.5v-53.125c3.45 0 6.25-2.8 6.25-6.25v-6.819h-0.063zM31.25 9.381c0-1.728 1.397-3.125 3.125-3.125h31.25c1.728 0 3.125 1.397 3.125 3.125v3.125h-37.5v-3.125zM81.25 87.506c0 3.444-2.806 6.25-6.25 6.25h-50c-3.447 0-6.25-2.806-6.25-6.25v-53.125h62.5v53.125zM87.5 25.003v3.125h-75v-6.247c0-1.728 1.397-3.125 3.125-3.125h68.75c1.728 0 3.125 1.397 3.125 3.125v3.122zM28.125 87.519h6.25c1.728 0 3.125-1.397 3.125-3.125v-40.625c0-1.728-1.397-3.125-3.125-3.125h-6.25c-1.728 0-3.125 1.397-3.125 3.125v40.625c0 1.728 1.397 3.125 3.125 3.125zM28.125 43.766h6.25v40.625h-6.25v-40.625zM46.875 87.519h6.25c1.728 0 3.125-1.397 3.125-3.125v-40.625c0-1.728-1.397-3.125-3.125-3.125h-6.25c-1.728 0-3.125 1.397-3.125 3.125v40.625c0 1.728 1.397 3.125 3.125 3.125zM46.875 43.766h6.25v40.625h-6.25v-40.625zM65.625 87.519h6.25c1.728 0 3.125-1.397 3.125-3.125v-40.625c0-1.728-1.397-3.125-3.125-3.125h-6.25c-1.728 0-3.125 1.397-3.125 3.125v40.625c0 1.728 1.397 3.125 3.125 3.125zM65.625 43.766h6.25v40.625h-6.25v-40.625z" fill="#00611c"></path>
</svg>
