<?xml version="1.0" encoding="utf-8"?>
<!-- Generated by IcoMoon.io -->
<!DOCTYPE svg PUBLIC "-//W3C//DTD SVG 1.1//EN" "http://www.w3.org/Graphics/SVG/1.1/DTD/svg11.dtd">
<svg version="1.1" xmlns="http://www.w3.org/2000/svg" xmlns:xlink="http://www.w3.org/1999/xlink" width="100" height="100" viewBox="0 0 100 100">
<path d="M62.5 0.016c-20.709 0-37.5 16.791-37.5 37.5 0 6.331 1.584 12.291 4.359 17.525l-26.075 26.069 0.022 0.019c-2.038 2.003-3.306 4.778-3.306 7.862 0 6.091 4.938 11.028 11.028 11.028 3.078 0 5.856-1.269 7.859-3.309l-0.006-0.006 26.066-26.063c5.237 2.784 11.206 4.375 17.553 4.375 20.709 0 37.5-16.791 37.5-37.5s-16.791-37.5-37.5-37.5zM14.984 92.803c-1.006 1.044-2.4 1.697-3.956 1.697-3.047 0-5.516-2.466-5.516-5.513 0-1.556 0.656-2.947 1.697-3.956l-0.028-0.025 25.206-25.206c2.203 2.972 4.828 5.597 7.794 7.806l-25.197 25.197zM62.5 68.769c-17.256 0-31.25-13.997-31.25-31.25 0-17.256 13.994-31.25 31.25-31.25 17.253 0 31.25 13.994 31.25 31.25 0 17.253-13.997 31.25-31.25 31.25zM62.5 15.641c0.859 0 1.563 0.7 1.563 1.563s-0.703 1.563-1.563 1.563c-10.356 0-18.75 8.397-18.75 18.75 0 0.862-0.7 1.563-1.563 1.563s-1.563-0.7-1.563-1.563c0-12.081 9.791-21.875 21.875-21.875z" fill="#ffffff"></path>
</svg>
